<?xml version="1.0" encoding="UTF-8" standalone="no"?>
<!-- Created with Inkscape (http://www.inkscape.org/) -->

<svg
   xmlns:dc="http://purl.org/dc/elements/1.1/"
   xmlns:cc="http://creativecommons.org/ns#"
   xmlns:rdf="http://www.w3.org/1999/02/22-rdf-syntax-ns#"
   xmlns:svg="http://www.w3.org/2000/svg"
   xmlns="http://www.w3.org/2000/svg"
   xmlns:sodipodi="http://sodipodi.sourceforge.net/DTD/sodipodi-0.dtd"
   xmlns:inkscape="http://www.inkscape.org/namespaces/inkscape"
   width="210mm"
   height="297mm"
   viewBox="0 0 210 297"
   version="1.1"
   id="svg895"
   inkscape:version="0.92.2 (5c3e80d, 2017-08-06)"
   sodipodi:docname="logo.svg">
  <defs
     id="defs889" />
  <sodipodi:namedview
     id="base"
     pagecolor="#ffffff"
     bordercolor="#666666"
     borderopacity="1.0"
     inkscape:pageopacity="0.0"
     inkscape:pageshadow="2"
     inkscape:zoom="1.4"
     inkscape:cx="406.93681"
     inkscape:cy="739.64949"
     inkscape:document-units="mm"
     inkscape:current-layer="layer1"
     showgrid="false"
     inkscape:window-width="1920"
     inkscape:window-height="1017"
     inkscape:window-x="-8"
     inkscape:window-y="-8"
     inkscape:window-maximized="1" />
  <metadata
     id="metadata892">
    <rdf:RDF>
      <cc:Work
         rdf:about="">
        <dc:format>image/svg+xml</dc:format>
        <dc:type
           rdf:resource="http://purl.org/dc/dcmitype/StillImage" />
        <dc:title></dc:title>
      </cc:Work>
    </rdf:RDF>
  </metadata>
  <g
     inkscape:label="Capa 1"
     inkscape:groupmode="layer"
     id="layer1">
    <g
       id="g5010"
       transform="matrix(1.558249,0,0,1.5060713,6215.8383,7511.7945)"
       inkscape:export-filename="C:\Users\Dario\Pictures\Home.png"
       inkscape:export-xdpi="90"
       inkscape:export-ydpi="90">
      <g
         transform="matrix(0.09460142,0,0,0.09460142,-3511.9649,-4459.4463)"
         id="text4253"
         style="font-style:normal;font-variant:normal;font-weight:normal;font-stretch:normal;font-size:131.49331665px;line-height:0px;font-family:'Mayeka Bold Demo';-inkscape-font-specification:'Mayeka Bold Demo';text-align:center;letter-spacing:0px;word-spacing:0px;text-anchor:middle;fill:#ffffff;fill-opacity:1;stroke:none;stroke-width:12.32749748px;stroke-linecap:butt;stroke-linejoin:miter;stroke-opacity:1"
         aria-label="L">
        <path
           sodipodi:nodetypes="ccccccc"
           inkscape:connector-curvature="0"
           id="path4285"
           style="font-style:normal;font-variant:normal;font-weight:normal;font-stretch:normal;font-family:'Mayeka Bold Demo';-inkscape-font-specification:'Mayeka Bold Demo';fill:#ffffff;stroke-width:12.32749748px"
           d="m -4563.139,-5005.8695 v 95.6453 h 48.2185 v 18.6197 h -66.8381 v -114.265 z" />
      </g>
      <path
         sodipodi:nodetypes="cccccccccccsccsccsccsccssccsccccccsccccccccscccccsccsccsccsccs"
         inkscape:connector-curvature="0"
         id="text4261"
         d="m -3933.6118,-4931.4133 -1.2026,9.2142 h 1.7736 l 0.5952,-4.5555 3.2678,4.3793 3.2617,-4.3793 0.5953,4.5555 h 1.7736 l -1.2027,-9.2142 -4.4279,6.2805 z m 15.6526,0.2126 c -1.0366,0 -1.9315,0.2652 -2.6847,0.7957 -0.6803,0.4819 -1.1844,1.1338 -1.5124,1.9558 -0.2349,0.5872 -0.3523,1.2026 -0.3523,1.8464 0,0.6439 0.1174,1.2614 0.3523,1.8526 0.328,0.822 0.8321,1.4739 1.5124,1.9558 0.7532,0.5305 1.6481,0.7958 2.6847,0.7958 1.0407,0 1.9355,-0.2653 2.6847,-0.7958 0.6803,-0.4819 1.1845,-1.1338 1.5124,-1.9558 0.2349,-0.5912 0.3523,-1.2087 0.3523,-1.8526 0,-0.6438 -0.1174,-1.2592 -0.3523,-1.8464 -0.3279,-0.822 -0.8321,-1.4739 -1.5124,-1.9558 -0.7492,-0.5305 -1.644,-0.7957 -2.6847,-0.7957 z m 9.3539,0 c -0.4414,0 -0.8585,0.061 -1.2512,0.1822 -0.6236,0.1863 -1.1177,0.4818 -1.4821,0.8868 -0.4009,0.4495 -0.6014,0.9921 -0.6014,1.6279 0,0.8868 0.3261,1.5468 0.978,1.98 0.3928,0.2633 1.1095,0.5224 2.1502,0.7775 0.5952,0.1458 1.0042,0.2713 1.2269,0.3766 l 1.3363,-1.312 c -0.3887,-0.2592 -1.1055,-0.5163 -2.1502,-0.7714 -0.5912,-0.1458 -0.9981,-0.2713 -1.2208,-0.3766 -0.3726,-0.1741 -0.5588,-0.3988 -0.5588,-0.6741 0,-0.3888 0.2733,-0.6662 0.8199,-0.8322 0.243,-0.073 0.4941,-0.1094 0.7532,-0.1094 v 0.01 c 0.2713,0 0.5224,0.034 0.7532,0.1033 0.5467,0.166 0.82,0.4433 0.82,0.8321 h 1.7614 c 0,-0.6357 -0.2004,-1.1784 -0.6013,-1.6279 -0.3645,-0.4049 -0.8564,-0.7005 -1.476,-0.8868 -0.4009,-0.1214 -0.82,-0.1821 -1.2573,-0.1821 z m -29.319,0.1944 v 8.8072 h 1.7615 v -8.8072 z m 19.9651,1.5671 c 0.6398,0 1.1905,0.1579 1.6521,0.4737 0.4131,0.2875 0.7188,0.6783 0.9172,1.1723 0.1458,0.3684 0.2187,0.7653 0.2187,1.1904 0,0.4253 -0.073,0.8241 -0.2187,1.1966 -0.1984,0.49 -0.5041,0.8787 -0.9172,1.1662 -0.4616,0.32 -1.0123,0.4798 -1.6521,0.4798 -0.6398,0 -1.1885,-0.1598 -1.6461,-0.4798 -0.417,-0.2875 -0.7228,-0.6762 -0.9171,-1.1662 -0.1498,-0.3725 -0.2247,-0.7713 -0.2247,-1.1966 0,-0.4251 0.075,-0.822 0.2247,-1.1904 0.1943,-0.494 0.5001,-0.8848 0.9171,-1.1723 0.4576,-0.3158 1.0063,-0.4737 1.6461,-0.4737 z"
         style="font-style:normal;font-variant:normal;font-weight:normal;font-stretch:normal;font-size:131.49331665px;line-height:0px;font-family:'Mayeka Bold Demo';-inkscape-font-specification:'Mayeka Bold Demo';text-align:center;letter-spacing:0px;word-spacing:0px;text-anchor:middle;fill:#ffffff;fill-opacity:1;stroke:none;stroke-width:1.16619873px;stroke-linecap:butt;stroke-linejoin:miter;stroke-opacity:1" />
      <g
         transform="matrix(0.09460142,0,0,0.09460142,-3511.9649,-4458.4452)"
         id="text4265"
         style="font-style:normal;font-variant:normal;font-weight:normal;font-stretch:normal;font-size:131.49331665px;line-height:0px;font-family:'Mayeka Bold Demo';-inkscape-font-specification:'Mayeka Bold Demo';text-align:center;letter-spacing:0px;word-spacing:0px;text-anchor:middle;fill:#ffffff;fill-opacity:1;stroke:none;stroke-width:12.32749748px;stroke-linecap:butt;stroke-linejoin:miter;stroke-opacity:1"
         aria-label="IMOS">
        <path
           inkscape:connector-curvature="0"
           transform="scale(0.26458333)"
           id="path4273"
           d="m -15788.52,-18601.721 c 3.149,4.183 4.745,8.775 4.745,13.787 0,15.693 -10.92,26.856 -32.76,33.489 -9.221,2.75 -19.253,4.125 -30.092,4.125 -10.354,0 -20.383,-1.375 -30.09,-4.125 -21.84,-6.633 -32.762,-17.796 -32.762,-33.489 h -70.373 c 0,25.399 8.01,47.078 24.026,65.036 14.56,16.339 34.297,28.23 59.211,35.671 15.692,4.692 32.354,7.037 49.988,7.037 v 0.243 c 17.472,0 34.216,-2.426 50.232,-7.28 24.752,-7.441 44.409,-19.332 58.969,-35.671 16.016,-17.958 24.024,-39.637 24.024,-65.036 0,-4.76 -0.247,-9.353 -0.721,-13.789 z"
           style="font-style:normal;font-variant:normal;font-weight:normal;font-stretch:normal;font-family:'Mayeka Bold Demo';-inkscape-font-specification:'Mayeka Bold Demo';fill:#ffffff;stroke-width:46.59211731px" />
      </g>
      <path
         sodipodi:nodetypes="cccccscccccccccsccccccccccccccccccccscccccsccccccscs"
         style="fill:#ffffff;stroke-width:0.02502995"
         d="m -3901.783,-4930.3482 c -0.036,0 -0.079,0.01 -0.117,0.028 -0.047,0.023 -1.2595,1.2158 -2.7555,2.7125 l -2.6715,2.6725 c 0.2985,0.4683 1.1364,0.556 1.9967,0.484 0.3683,0 0.8166,0 1.3226,0 h 2.1345 l 0.065,-0.057 c 0.044,-0.038 0.07,-0.091 0.079,-0.1592 0.012,-0.089 0,-0.1139 -0.062,-0.1877 l -0.076,-0.085 -0.7342,-0.01 -0.5507,-0.01 c 0.014,-0.01 0.029,-0.014 0.042,-0.02 0.4711,-0.2488 0.9152,-0.5821 1.3395,-1.0051 0.3232,-0.3223 0.5364,-0.5859 0.8294,-1.0256 0.3602,-0.5406 0.7791,-1.4485 0.7829,-1.6968 v -0.1067 l -0.7634,-0.7615 c -0.4836,-0.4823 -0.7879,-0.7674 -0.8301,-0.7777 -0.01,0 -0.021,0 -0.034,-0.01 z m -0.013,0.6055 0.5507,0.5504 c 0.3029,0.3026 0.5509,0.5617 0.5509,0.5755 0,0.014 -0.047,0.1432 -0.1051,0.2874 -0.5923,1.4754 -1.7733,2.6773 -3.1364,3.1917 -0.2682,0.1012 -0.7083,0.2084 -1.0281,0.2504 -0.1587,0.02 -0.4541,0.037 -0.6564,0.035 -0.3535,0 -0.849,-0.052 -0.9206,-0.092 -0.024,-0.013 0.6545,-0.708 2.3554,-2.4087 z m 1.3784,4.7888 v 0 c -0.325,0 -0.6487,0.014 -0.7032,0.042 -0.1577,0.082 -0.1853,0.2833 -0.055,0.4038 0.064,0.059 0.064,0.059 0.7625,0.059 h 0.699 l 0.073,-0.073 c 0.1211,-0.1211 0.088,-0.3157 -0.065,-0.3887 -0.06,-0.028 -0.3858,-0.042 -0.7108,-0.043 z m 2.1635,0.01 c -0.5226,0 -0.6542,0.01 -0.7138,0.038 -0.1533,0.079 -0.1795,0.2788 -0.052,0.3931 l 0.078,0.07 h 0.6861 0.686 l 0.077,-0.065 c 0.062,-0.053 0.077,-0.084 0.077,-0.1643 0,-0.1256 -0.032,-0.1858 -0.1246,-0.2337 -0.06,-0.031 -0.1913,-0.038 -0.7139,-0.038 z"
         id="path4326"
         inkscape:connector-curvature="0" />
      <path
         sodipodi:nodetypes="ccscccccscsccscccsccsccccccccccccccc"
         inkscape:connector-curvature="0"
         id="path4737"
         d="m -3949.3462,-4926.5178 v -0.5682 c -1e-4,-0.063 -0.01,-0.1185 -0.05,-0.1685 -0.034,-0.043 -0.1656,-0.1024 -0.1775,-0.1172 -0.3191,-0.2181 -0.5942,-0.53 -0.7676,-0.881 -0.117,-0.2569 -0.1019,-0.544 -0.1117,-0.8409 0,-0.3775 0.042,-0.9149 0.1012,-1.4363 0.096,-0.8356 0.302,-2.3441 0.3319,-2.4297 0.01,-0.03 0.093,-0.046 0.2365,-0.046 h 0.2204 v 1.9227 c 0,1.7283 0.01,1.9332 0.061,2.0258 0.1069,0.181 0.3855,0.2424 0.5563,0.1228 0.184,-0.1289 0.187,-0.1645 0.187,-2.1875 v -1.8838 h 0.2925 0.2925 v 1.8838 c 0,2.023 0,2.0586 0.187,2.1875 0.1004,0.07 0.2826,0.077 0.4172,0.016 0.2009,-0.092 0.2,-0.082 0.2,-2.168 v -1.9228 l 0.2276,0.011 0.2277,0.011 0.029,0.1645 c 0.056,0.3208 0.2814,2.0375 0.3429,2.6138 0.035,0.3218 0.064,0.84 0.066,1.1516 0.01,0.5127 0.01,0.5322 -0.096,0.7772 -0.1797,0.3837 -0.4988,0.733 -0.8591,0.9595 -0.1002,0.068 -0.064,0.1605 -0.068,0.246 l 0.015,0.5623 0.015,0.5624 h -1.0161 -0.8659 v -0.5682 z"
         style="fill:#ffffff;stroke-width:0.03655767" />
      <rect
         ry="0"
         y="-4925.3516"
         x="-3949.3481"
         height="3.1524246"
         width="1.9029058"
         id="rect4739"
         style="opacity:1;fill:#ffffff;fill-opacity:1;stroke:none;stroke-width:0.37840569;stroke-linecap:butt;stroke-linejoin:miter;stroke-miterlimit:4;stroke-dasharray:none;stroke-dashoffset:0;stroke-opacity:1" />
      <rect
         transform="rotate(-135)"
         y="728.14648"
         x="6243.0625"
         height="4.0856853"
         width="2.18876"
         id="rect4745"
         style="opacity:1;fill:#ffffff;fill-opacity:1;stroke:none;stroke-width:0.33277303;stroke-linecap:butt;stroke-linejoin:miter;stroke-miterlimit:4;stroke-dasharray:none;stroke-dashoffset:0;stroke-opacity:1" />
    </g>
  </g>
</svg>
